<?xml version="1.0" encoding="UTF-8"?>
<svg version="1.1" viewBox="0 0 1080 1080" width="1080" height="1080" xmlns="http://www.w3.org/2000/svg">
<path transform="translate(0)" d="m0 0h1080v1080h-1080z"/>
<path transform="translate(521,338)" d="m0 0h38l25 4 21 6 24 10 19 11 14 10 14 12 12 12 9 11 10 14 12 21 2 6h-102l-14-11-17-10-16-6-19-4h-26l-16 3-15 5-17 9-12 9-9 8-11 14-8 14-6 14-4 16-1 7v25l3 17 6 17 8 15 9 12 7 8 11 9v2l-24-1-17 3-15 6-16 9-16 12-5-5-8-11-10-18-10-25-6-23-3-21v-36l3-21 6-23 8-20 8-16 10-16 11-14 12-13 7-7 11-9 14-10 21-12 25-10 23-6z" fill="#fff"/>
<path transform="translate(517,501)" d="m0 0h218l1 1 2 16v36l-3 21-6 23-8 20-8 16-10 16-11 14-12 13-7 7-14 11-14 10-7 4h-3v-138h-118l-1-1v-68z" fill="#fff"/>
<path transform="translate(455,634)" d="m0 0h9l15 3 16 8 11 8 17 17 13 17 13 18 11 16 12 16 1 4-9 1h-35l-21-3-22-6-21-8-19-10-15-10-10-8-10-9-14-14-6-8v-2l18-13 21-11 17-5z" fill="#fff"/>
</svg>
